PathFileType	4	(X/Y/Z)	C:\Users\°ÂÌØÂü\Desktop\20210112\bx_y_10_1801-Unnamed.trc
DataRate	CameraRate	NumFrames	NumMarkers	Units	OrigDataRate	OrigDataStartFrame	OrigNumFrames
50.00	50.00	       5	0	mm	50.00	410	       468
Frame#	Time	
		

410	8.180	-709.35394	275.39447	1542.23547	-601.72449	-20.52764	810.56946	-675.93579	174.21092	157.57204	-717.09070	71.86945	218.49655	-672.83997	8.47722	524.34998	-711.50446	152.25629	216.71004	-684.14886	259.94727	752.23352	-709.56055	-61.68726	721.95111	-722.35541	-32.06617	570.88080	-719.61938	-70.19162	1572.27466	-720.16998	240.41953	643.91675	-693.25909	73.03613	587.33612	-724.00287	235.69063	582.05017	-768.98846	246.35854	507.57959	-666.58655	-70.79762	159.62708	-676.17554	51.45997	161.75690	-708.38025	-36.21843	618.84906	-517.83948	-72.48229	142.81938	-772.13745	221.99019	205.37917	-624.11157	-81.12632	157.16278	-882.55988	296.18518	144.73657	-672.25354	195.07355	537.35071	-604.88977	16.19269	170.43336	-562.25397	-39.36613	163.26637	-614.84442	-33.38961	1058.44250	-595.27039	222.29497	173.61220	-666.72028	298.43176	160.38284	-629.13782	306.07431	161.48117	-561.95453	260.56519	165.37170	-528.26221	304.35477	146.57860	-720.33307	93.31210	1853.79492	-628.12286	264.70908	886.69196	-587.18860	194.48402	819.40356	-796.44806	172.12833	184.32013	-687.57324	133.82062	582.84900	-770.75476	-7.70943	206.71729	-794.65704	54.69725	175.64990	-773.76660	-37.11718	492.18668	-876.03320	-78.59757	141.50241	-617.61377	87.63318	1439.33948	-666.85522	-84.17988	874.10034	-803.15704	95.84876	1041.17651	-586.46381	195.00517	1073.31128	
411	8.200	-709.50787	275.50531	1542.40918	-602.55603	-20.53022	809.96918	-675.93579	174.21092	157.57204	-717.35187	71.68494	218.52318	-674.88055	8.46208	524.59650	-711.70044	152.47046	216.83908	-684.79358	259.46887	751.76904	-710.39648	-62.00447	721.80298	-724.05621	-33.17120	571.31079	-719.77777	-70.43906	1571.44934	-721.24426	240.49139	644.02185	-695.54065	72.80113	587.10315	-725.52838	235.77740	582.17975	-770.48584	246.21471	507.41733	-666.66095	-70.94344	159.78856	-676.28497	51.18907	161.79895	-710.59021	-35.87539	617.85638	-518.12122	-72.43181	142.95534	-772.40167	222.08868	205.43893	-624.27661	-81.22224	157.12720	-882.58478	296.15625	144.63521	-674.07465	195.30719	537.19702	-605.05573	16.13195	170.62668	-562.25397	-39.36613	163.26637	-614.84961	-33.70844	1057.88672	-595.57227	222.42245	173.78299	-666.72034	298.54382	160.36081	-629.18591	306.15729	161.47882	-561.91681	260.52124	165.48331	-528.12799	304.54727	146.78020	-720.76050	92.77792	1853.66113	-628.18323	264.52036	886.51135				-796.72113	172.25795	184.12981	-689.37506	133.77219	582.76221	-771.43201	-8.04893	206.26874	-794.87439	54.47022	175.50819	-775.42957	-37.73212	492.04224	-876.03320	-78.59757	141.50241	-617.70801	87.76624	1439.36475	-667.14526	-84.70322	874.10657	-802.96198	95.51205	1041.54761	-586.14490	195.00978	1072.63367	
412	8.220	-710.11377	275.43973	1542.81177	-603.70984	-19.93761	809.44427	-675.98761	174.03137	157.89439	-717.75537	71.81125	219.06061	-676.44794	8.27675	524.58392	-712.04114	152.38025	216.79082	-685.44409	259.32062	751.43726	-711.26123	-62.54259	721.74243	-725.34064	-33.38184	571.80823	-719.58716	-70.76643	1570.79236	-722.38745	240.34737	643.90503	-697.41248	72.30116	586.94086	-726.49274	235.98746	581.87720	-771.28650	246.69769	507.38327	-666.60956	-71.01479	159.63248	-676.28979	51.04529	161.97360	-711.68140	-36.80159	617.90546	-517.97040	-72.72079	142.92062	-772.31506	222.01668	205.29427	-624.24805	-81.34143	157.05571	-882.58478	296.15625	144.63521	-674.87335	194.92320	537.62573	-605.16705	16.10431	170.57187	-562.33856	-39.32450	163.32417	-614.75354	-34.02290	1057.47961	-595.75903	222.43559	173.70105	-666.67786	298.60345	160.53450	-629.32117	306.22449	161.53551	-561.94019	260.49008	165.43103	-528.21582	304.51608	146.71443	-721.02069	92.20911	1853.64307	-628.53046	264.51773	886.31689				-796.68176	172.32509	184.12848	-690.31195	133.84898	582.68042	-771.51263	-8.22011	206.08900	-794.93390	54.20982	175.52452	-776.51959	-38.85786	492.05261	-876.02838	-78.54763	141.55200	-617.70801	87.76624	1439.36475	-667.36993	-85.01745	874.23376	-802.87915	95.33526	1041.65576	-585.84839	194.80600	1072.17322	
413	8.240	-710.46826	275.32437	1543.03906	-604.65460	-19.67806	809.08710	-676.23029	174.31258	157.72552	-717.74341	71.59074	219.28473	-677.38806	8.36958	524.90906	-712.04114	152.38025	216.79082	-685.90332	259.36896	751.39679	-712.32770	-62.88886	721.36292	-726.67560	-33.59699	571.23969	-719.70831	-71.18852	1570.49646	-723.07587	240.42586	643.63458	-699.34015	72.32388	587.46399	-727.35571	236.35530	582.27960	-771.54102	246.71930	507.33279	-666.67145	-71.12812	159.68675	-676.46149	50.99989	162.27165	-712.24835	-36.68847	617.77393	-518.01453	-72.68342	142.95500	-772.45288	221.91576	205.43826	-624.24805	-81.34143	157.05571	-882.66003	296.11053	144.51537	-675.59576	195.06757	537.84460	-605.20953	16.07204	170.50832	-562.33856	-39.32450	163.32417	-614.90430	-34.13620	1057.10046	-595.73926	222.40831	173.65718	-666.68237	298.57596	160.40454	-629.28741	306.14075	161.68250	-561.96722	260.50653	165.57343	-528.06250	304.48767	146.72304	-721.09369	91.34022	1853.71155	-629.09955	264.42062	885.94055				-796.66113	172.38516	184.20874	-691.18500	133.90591	582.42188	-771.86530	-8.46608	206.18025	-794.97729	53.99150	175.49101	-777.51849	-39.22108	491.87787	-876.03320	-78.59757	141.50241	-617.70801	87.76624	1439.36475	-667.71124	-85.53795	873.97180	-802.87744	94.89735	1042.14343	-586.14996	195.07094	1071.94861	
414	8.260	-710.66858	275.25595	1543.46716	-605.49841	-19.66850	808.93719	-675.98761	174.03137	157.89439	-717.84052	71.59864	219.30634	-678.38458	8.06346	525.00519	-712.04114	152.38025	216.79082	-686.80804	259.68002	751.59125	-712.85242	-63.16059	721.68823	-727.24548	-34.15848	571.29169	-719.71625	-71.40595	1570.19385	-723.51593	240.30675	643.63110	-700.46936	71.61578	587.13177	-727.32861	236.50095	582.26025	-771.46863	246.80690	507.30652	-666.72998	-71.10722	159.80330	-676.44409	51.16947	162.32031	-713.52759	-36.68457	617.37762	-517.96667	-72.62754	143.00798	-772.45721	222.18910	205.30602	-624.23651	-81.28312	157.09717	-882.58704	296.15555	144.64662	-675.59485	195.01880	537.92871	-605.20953	16.07204	170.50832	-562.38861	-39.29124	163.27417	-614.90430	-34.13620	1057.10046	-595.42279	222.36160	173.72606	-666.74097	298.57980	160.58977	-629.24146	306.15146	161.63223	-562.02460	260.41138	165.54507	-528.09930	304.61798	146.67235	-721.14807	90.80814	1853.98914	-629.60986	264.83173	886.12848				-796.70941	172.39319	184.03644	-691.08093	133.91473	582.56250	-771.93927	-8.68035	206.46147	-795.22467	53.96811	175.28696	-777.30951	-39.07044	491.31085	-876.02838	-78.54763	141.55200	-617.70801	87.76624	1439.36475	-667.82184	-85.59549	873.79376	-803.34686	94.81092	1042.46680	-586.30920	194.89772	1071.75256	
